# xmcd CD database file
#
# Track frame offsets:
#	150
#	15155
#	29562
#	41772
#	57767
#	70147
#	83152
#	92300
#	104617
#	120622
#	135220
#	147575
#	162577
#	180425
#	195920
#	214642
#	228512
#	241275
#	253997
#	270315
#
# Disc length: 3765 seconds
#
# Revision: 0
# Processed by: cddbd v1.5.2PL0 Copyright (c) Steve Scherf et al.
# Submitted via: CDex 1.78
#
DISCID=0a0eb314
DTITLE=Ove Linds - Phontastic Evergreens vol.2
DYEAR=1995
DGENRE=Jazz
TTITLE0=Chicago
TTITLE1=As time goes by
TTITLE2=Whispering
TTITLE3=I can't give you anything but love
TTITLE4=Three little words
TTITLE5=Ain't she sweet
TTITLE6=The best things in life are free
TTITLE7=A fine romance
TTITLE8=Smoke gets in your eyes
TTITLE9=Jeepers creepers
TTITLE10=It's been a long long time
TTITLE11=Takin' a chance on love
TTITLE12=Deep purple
TTITLE13=It all depends on you
TTITLE14=Making whoopee
TTITLE15=The Sheik of Araby
TTITLE16=Baby it's cold outside
TTITLE17=Five foot two, eyes of blue
TTITLE18=These foolish things
TTITLE19=Mack the Knife
EXTD=YEAR: 1995
EXTT0=
EXTT1=
EXTT2=
EXTT3=
EXTT4=
EXTT5=
EXTT6=
EXTT7=
EXTT8=
EXTT9=
EXTT10=
EXTT11=
EXTT12=
EXTT13=
EXTT14=
EXTT15=
EXTT16=
EXTT17=
EXTT18=
EXTT19=
PLAYORDER=
